<svg viewBox="0 0 357 229" fill="none" xmlns="http://www.w3.org/2000/svg">
<g clip-path="url(#clip0_1_191)">
<path d="M337.3 220.393H24.1C19.9 220.393 16.5 217.076 16.5 212.978V7.88259C16.5 3.78459 19.9 0.467163 24.1 0.467163H337.3C341.5 0.467163 344.9 3.78459 344.9 7.88259V212.88C345 217.076 341.5 220.393 337.3 220.393Z" fill="#00D5E4"/>
<path d="M326.2 212.978H35.2C31 212.978 27.6 209.66 27.6 205.562V15.3956C27.6 11.2976 31 7.98016 35.2 7.98016H326.2C330.4 7.98016 333.8 11.2976 333.8 15.3956V205.562C333.9 209.563 330.4 212.978 326.2 212.978Z" fill="#065090"/>
<path d="M115.6 28.6653H75.4V33.056H115.6V28.6653Z" fill="#FCFDFD"/>
<path d="M101 38.4224H75.4V42.8131H101V38.4224Z" fill="#FCFDFD"/>
<path d="M218.5 38.4224H115.4V42.8131H218.5V38.4224Z" fill="#FCFDFD"/>
<path d="M282.5 38.4224H228.5V42.8131H282.5V38.4224Z" fill="#FF6452"/>
<path d="M150.5 48.1796H85.4V52.5703H150.5V48.1796Z" fill="#00D050"/>
<path d="M267.5 48.1796H170.5V52.5703H267.5V48.1796Z" fill="#FCFDFD"/>
<path d="M167 57.9367H75.4V62.3274H167V57.9367Z" fill="#FF6452"/>
<path d="M240.5 57.9367H175.4V62.3274H240.5V57.9367Z" fill="#00D5E4"/>
<path d="M150.5 67.6938H85.4V72.0846H150.5V67.6938Z" fill="#FCFDFD"/>
<path d="M170.5 77.451H75.4V81.8417H170.5V77.451Z" fill="#FCFDFD"/>
<path d="M140.5 87.2081H75.4V91.5988H140.5V87.2081Z" fill="#FCFDFD"/>
<path d="M204 96.9653H95.4V101.356H204V96.9653Z" fill="#FF6452"/>
<path d="M250.5 96.9653H215.4V101.356H250.5V96.9653Z" fill="#FCFDFD"/>
<path d="M300.5 96.9653H265.4V101.356H300.5V96.9653Z" fill="#FCFDFD"/>
<path d="M149.7 106.722H105.4V111.113H149.7V106.722Z" fill="#FCFDFD"/>
<path d="M164.5 116.48H105.4V120.87H164.5V116.48Z" fill="#FF6452"/>
<path d="M250.5 116.48H185.4V120.87H250.5V116.48Z" fill="#FCFDFD"/>
<path d="M292.5 116.48H265.4V120.87H292.5V116.48Z" fill="#FF6452"/>
<path d="M115.4 126.237H75.4V130.627H115.4V126.237Z" fill="#FCFDFD"/>
<path d="M140.5 135.994H75.4V140.385H140.5V135.994Z" fill="#FCFDFD"/>
<path d="M223.5 145.751H105.4V150.142H223.5V145.751Z" fill="#FCFDFD"/>
<path d="M308.5 145.751H235.4V150.142H308.5V145.751Z" fill="#00D5E4"/>
<path d="M145.5 155.508H105.4V159.899H145.5V155.508Z" fill="#FCFDFD"/>
<path d="M195.5 155.508H155.4V159.899H195.5V155.508Z" fill="#00D050"/>
<path d="M245.5 155.508H205.4V159.899H245.5V155.508Z" fill="#FCFDFD"/>
<path d="M140.5 165.265H75.4V169.656H140.5V165.265Z" fill="#FCFDFD"/>
<path d="M160.5 175.022H95.4V179.413H160.5V175.022Z" fill="#00D050"/>
<path d="M238 175.022H172.9V179.413H238V175.022Z" fill="#00D050"/>
<path d="M208 194.537H171.5V198.927H208V194.537Z" fill="#FCFDFD"/>
<path d="M192 184.78H95.4V189.17H192V184.78Z" fill="#FCFDFD"/>
<path d="M50.3 28.6653H45.8V33.056H50.3V28.6653Z" fill="#5E94C1"/>
<path d="M50.3 38.4224H45.8V42.8131H50.3V38.4224Z" fill="#5E94C1"/>
<path d="M50.3 48.1796H45.8V52.5703H50.3V48.1796Z" fill="#5E94C1"/>
<path d="M50.3 57.9367H45.8V62.3274H50.3V57.9367Z" fill="#5E94C1"/>
<path d="M50.3 67.6938H45.8V72.0846H50.3V67.6938Z" fill="#5E94C1"/>
<path d="M50.3 77.451H45.8V81.8417H50.3V77.451Z" fill="#5E94C1"/>
<path d="M50.3 87.2081H45.8V91.5988H50.3V87.2081Z" fill="#5E94C1"/>
<path d="M50.3 96.9653H45.8V101.356H50.3V96.9653Z" fill="#5E94C1"/>
<path d="M50.3 106.722H45.8V111.113H50.3V106.722Z" fill="#5E94C1"/>
<path d="M50.3 116.48H45.8V120.87H50.3V116.48Z" fill="#5E94C1"/>
<path d="M50.3 126.237H45.8V130.627H50.3V126.237Z" fill="#5E94C1"/>
<path d="M50.3 135.994H45.8V140.385H50.3V135.994Z" fill="#5E94C1"/>
<path d="M50.3 145.751H45.8V150.142H50.3V145.751Z" fill="#5E94C1"/>
<path d="M50.3 155.508H45.8V159.899H50.3V155.508Z" fill="#5E94C1"/>
<path d="M50.3 165.265H45.8V169.656H50.3V165.265Z" fill="#5E94C1"/>
<path d="M50.3 175.022H45.8V179.413H50.3V175.022Z" fill="#5E94C1"/>
<path d="M50.3 184.78H45.8V189.17H50.3V184.78Z" fill="#5E94C1"/>
<path d="M50.3 194.537H45.8V198.927H50.3V194.537Z" fill="#5E94C1"/>
<path d="M143.7 194.537H95.4V198.927H143.7V194.537Z" fill="#FCFDFD"/>
<path d="M284.7 198.83L265.7 190.927V187.707L284.7 179.803V183.218L269.6 189.268L284.7 195.317V198.83Z" fill="#FCFDFD"/>
<path d="M298.1 175.12L289.8 203.123H287L295.3 175.12H298.1Z" fill="#FCFDFD"/>
<path d="M319.3 190.927L300.3 198.83V195.415L315.4 189.365L300.3 183.316V179.901L319.3 187.804V190.927Z" fill="#FCFDFD"/>
<path d="M337 228.492H20C9 228.492 0 219.71 0 208.977H357C357 219.808 348 228.492 337 228.492Z" fill="#00BBD3"/>
<g opacity="0.1">
<g opacity="0.1">
<path opacity="0.1" d="M129.4 212.978L204 7.88257H175.7L101.1 212.978H129.4Z" fill="white"/>
</g>
<g opacity="0.1">
<path opacity="0.1" d="M35.3 212.978H48.6L123.2 7.88257H35.3C31.1 7.88257 27.7 11.2 27.7 15.298V205.465C27.6 209.563 31.1 212.978 35.3 212.978Z" fill="white"/>
</g>
<g opacity="0.1">
<path opacity="0.1" d="M287.6 212.978H326.3C330.5 212.978 333.9 209.66 333.9 205.562V85.7446L287.6 212.978Z" fill="white"/>
</g>
</g>
<g opacity="0.1">
<g opacity="0.1">
<path opacity="0.1" d="M184.3 212.978H236.2L310.8 7.88257H258.9L184.3 212.978Z" fill="white"/>
</g>
</g>
<path d="M354.3 218.734C356 215.905 357 212.49 357 208.977H0C0 212.49 1 215.905 2.7 218.734H354.3Z" fill="#15D7E2"/>
</g>
<defs>
<clipPath id="clip0_1_191">
<rect width="357" height="228.024" fill="white" transform="translate(0 0.467163)"/>
</clipPath>
</defs>
</svg>
